<svg width="23" height="21" viewBox="0 0 23 21" fill="none" xmlns="http://www.w3.org/2000/svg">
<g clip-path="url(#clip0_1_2)">
<path fill-rule="evenodd" clip-rule="evenodd" d="M3.04912 1.8083C2.94683 1.8006 2.80691 1.8 2.55424 1.8H0.9C0.402944 1.8 0 1.39706 0 0.900004C0 0.402947 0.402944 3.59166e-06 0.9 3.59166e-06H2.55424C2.56307 3.59166e-06 2.57188 2.69759e-06 2.58067 1.80352e-06C2.79702 -2.0429e-05 3.00609 -4.18266e-05 3.18436 0.01339C3.38117 0.0282189 3.60395 0.0626716 3.83292 0.164811C4.15863 0.310099 4.43687 0.544125 4.63581 0.840121C4.77568 1.04821 4.84779 1.26179 4.89612 1.45315C4.9399 1.62648 4.9757 1.83246 5.01275 2.04561C5.01425 2.05428 5.01576 2.06296 5.01727 2.07165L5.26953 3.52213L18.3621 3.90968C18.8747 3.92484 19.3119 3.93777 19.6708 3.9773C20.0483 4.01888 20.4145 4.09628 20.7635 4.28223C21.298 4.56696 21.7299 5.01183 21.9987 5.55446C22.1742 5.90885 22.2407 6.27717 22.2711 6.65579C22.3 7.01568 22.3 7.45306 22.3 7.96589V8.03368C22.3 8.51568 22.3 8.92817 22.2735 9.26912C22.2455 9.62887 22.1842 9.97871 22.0238 10.3193C21.7773 10.8431 21.3797 11.281 20.8821 11.5769C20.5585 11.7693 20.2162 11.864 19.8608 11.9265C19.524 11.9858 19.1135 12.0255 18.6337 12.0719L8.90574 13.0133C8.41397 13.0609 7.99357 13.1016 7.64396 13.1078C7.27538 13.1143 6.91359 13.0854 6.55277 12.9529C6.00605 12.752 5.53247 12.3912 5.19371 11.9174C4.97014 11.6047 4.84627 11.2636 4.75469 10.9065C4.66782 10.5678 4.59547 10.1517 4.51083 9.66497L3.24389 2.38006C3.2006 2.13113 3.17604 1.99339 3.15092 1.89393C3.14316 1.8632 3.13716 1.84403 3.13351 1.83342C3.12716 1.8263 3.11982 1.82013 3.11172 1.81509C3.10064 1.81331 3.08073 1.81068 3.04912 1.8083ZM5.58433 5.33224L6.27842 9.32323C6.37045 9.85242 6.43117 10.1978 6.49825 10.4593C6.56259 10.7101 6.61618 10.8121 6.65794 10.8705C6.78644 11.0502 6.96607 11.1871 7.17345 11.2633C7.24085 11.288 7.35338 11.3126 7.6123 11.3081C7.88224 11.3033 8.23132 11.2702 8.76595 11.2184L18.4273 10.2835C18.9492 10.233 19.2894 10.1994 19.5489 10.1538C19.7975 10.11 19.9014 10.0659 19.9622 10.0297C20.1509 9.91749 20.3017 9.75136 20.3952 9.55269C20.4254 9.48869 20.4593 9.38107 20.4789 9.12938C20.4994 8.86667 20.5 8.52482 20.5 8.00051C20.5 7.44362 20.4993 7.07907 20.4769 6.79981C20.4553 6.5312 20.418 6.41858 20.3857 6.35342C20.2837 6.1476 20.1199 5.97885 19.9172 5.87085C19.853 5.83667 19.7416 5.79598 19.4737 5.76648C19.1952 5.73581 18.8309 5.72435 18.2742 5.70787L5.58433 5.33224Z" fill="#262F56"/>
<path fill-rule="evenodd" clip-rule="evenodd" d="M8.4 16.3C7.79249 16.3 7.3 16.7925 7.3 17.4C7.3 18.0075 7.79249 18.5 8.4 18.5C9.00751 18.5 9.5 18.0075 9.5 17.4C9.5 16.7925 9.00751 16.3 8.4 16.3ZM5.5 17.4C5.5 15.7984 6.79837 14.5 8.4 14.5C10.0016 14.5 11.3 15.7984 11.3 17.4C11.3 19.0016 10.0016 20.3 8.4 20.3C6.79837 20.3 5.5 19.0016 5.5 17.4Z" fill="#262F56"/>
<path fill-rule="evenodd" clip-rule="evenodd" d="M17.9 16.3C17.2925 16.3 16.8 16.7925 16.8 17.4C16.8 18.0075 17.2925 18.5 17.9 18.5C18.5075 18.5 19 18.0075 19 17.4C19 16.7925 18.5075 16.3 17.9 16.3ZM15 17.4C15 15.7984 16.2984 14.5 17.9 14.5C19.5016 14.5 20.8 15.7984 20.8 17.4C20.8 19.0016 19.5016 20.3 17.9 20.3C16.2984 20.3 15 19.0016 15 17.4Z" fill="#262F56"/>
</g>
<defs>
<clipPath id="clip0_1_2">
<rect width="22.3" height="20.3" fill="white"/>
</clipPath>
</defs>
</svg>
